<?xml version="1.0" standalone="no"?><!DOCTYPE svg PUBLIC "-//W3C//DTD SVG 1.1//EN" "http://www.w3.org/Graphics/SVG/1.1/DTD/svg11.dtd"><svg t="1505564102905" class="icon" style="" viewBox="0 0 1024 1024" version="1.1" xmlns="http://www.w3.org/2000/svg" p-id="4039" xmlns:xlink="http://www.w3.org/1999/xlink" width="128" height="128"><defs><style type="text/css"></style></defs><path d="M886.135072 564.330856c0.209778-8.487302 0.234337-17.121959 0.057306-25.777083 2.308579-117.077485-32.531927-215.771275-100.777241-285.431822-32.550347-33.217543-72.138994-58.716286-117.503181-76.084862C660.875702 113.794719 592.19139 64.003709 508.764306 64.003709c-83.422991 0-152.102187 49.79101-159.14458 113.03338-45.359071 17.368576-84.943624 42.866297-117.488855 76.084862-68.264756 69.664639-103.121636 168.158884-100.796684 284.884353-0.205685 11.031241-0.137123 21.3871 0.205685 31.507598-17.688871 17.803481-31.54546 44.691875-21.419845 82.423221 7.52744 28.04166 28.269857 49.049113 53.722552 58.245565a85.398995 85.398995 0 0 0 44.38079 12.727883c32.455179 141.889591 150.263305 238.21545 304.098972 238.21545 153.555282 0 271.391037-96.567359 303.658952-238.539838 0.992607 0.216941 2.02717 0.340761 3.083221 0.340761 20.266579 0 38.908148-7.080256 53.613059-18.86465 19.21769-10.906397 34.251082-29.15604 40.413431-52.125171 11.165294-41.590234-6.817266-70.01461-26.955932-87.606267zM374.530069 395.058614c2.445702 4.089132 61.075007 100.758822 171.530678 142.662187 30.476105 11.562337 61.698201 18.174941 91.894943 24.565489 60.567447 12.831236 117.786637 24.951275 156.769486 75.56093a14.530948 14.530948 0 0 0 1.325182 1.471514l-0.061399 2.557242c0 18.86772-1.423419 37.099966-4.170996 54.623062-50.114374 80.068593-133.265166 132.540665-236.274238 143.844105-7.67582-10.135848-23.313985-17.119913-41.479716-17.119912-25.758664 0-46.662763 13.945617-46.662763 31.103392 0 17.198707 20.905122 31.111578 46.662763 31.111578 23.092951 0 42.11519-11.235902 45.816488-25.931602 33.220612-3.816932 64.900126-11.752672 94.595448-23.747867 42.419112-17.129122 79.802534-42.084491 111.094214-74.17742 5.012154-5.126764 9.82067-10.440793 14.470573-15.891945-37.296441 113.595174-137.000234 186.618305-267.167852 186.629561-0.23536-0.01228-0.87288-0.01228-1.105171-0.01228-167.018921 0-283.667641-119.429043-283.667641-290.700825l-0.313132-16.299221c-0.205685-6.984065 0.874927-26.601868 2.03945-45.415352 91.050716-32.212656 128.856763-124.760468 130.510426-128.919185l14.193257-55.913451z m60.055794 259.524778c0 29.819143-24.178679 53.999868-53.999868 53.999869-29.819143 0-53.996798-24.180725-53.996798-53.999869 0-29.819143 24.177656-53.996798 53.996798-53.996798 29.822213 0.001023 53.999868 24.178679 53.999868 53.996798z m251.443729 0c0 29.346375-23.786753 53.137221-53.134151 53.137221-29.343305 0-53.129035-23.791869-53.129035-53.137221 0-29.344329 23.786753-53.133128 53.129035-53.133127 29.348422 0 53.134151 23.789823 53.134151 53.133127z" p-id="4040" fill="#1296db"></path></svg>