<?xml version="1.0" standalone="no"?><!DOCTYPE svg PUBLIC "-//W3C//DTD SVG 1.1//EN" "http://www.w3.org/Graphics/SVG/1.1/DTD/svg11.dtd"><svg t="1505564060603" class="icon" style="" viewBox="0 0 1024 1024" version="1.1" xmlns="http://www.w3.org/2000/svg" p-id="3168" xmlns:xlink="http://www.w3.org/1999/xlink" width="128" height="128"><defs><style type="text/css"></style></defs><path d="M472.006719 335.943558h74.48211v74.48211h-74.48211zM620.970939 485.079792h74.48211v74.48211H620.970939zM546.488829 559.561902H620.970939v74.482109h-74.48211zM472.006719 485.079792h74.48211v74.48211h-74.48211zM322.870485 485.079792H397.352595v74.48211h-74.48211zM472.006719 634.044011h74.48211v74.48211h-74.48211zM695.453049 261.461448h74.48211v74.48211h-74.48211z" fill="#15c9d7" p-id="3169"></path><path d="M620.970939 335.943558h-74.48211V261.461448H620.970939v-74.654124h223.618344v223.618344h-74.48211V485.079792h-74.654124v-74.654124H620.970939V485.079792h-74.48211v-74.654124H620.970939z" fill="#707070" p-id="3170"></path><path d="M658.642029 224.478414h148.448178v148.448178h-148.448178zM322.870485 410.425668V485.079792h-74.482109v-74.654124H173.734252v-223.618344h223.618343V261.461448h74.654124v74.48211H397.352595v74.48211h74.654124V485.079792H397.352595v-74.654124z" fill="#8a8a8a" p-id="3171"></path><path d="M211.405342 224.478414h148.448177v148.448178h-148.448177z" fill="#15c9d7" p-id="3172"></path><path d="M248.388376 261.461448h74.482109v74.48211h-74.482109zM695.453049 634.044011v-74.482109h74.654124v74.482109H844.589283v223.618344H620.970939v-74.48211h-74.48211V708.698135H620.970939v-74.654124z" fill="#707070" p-id="3173"></path><path d="M658.642029 671.715102h148.448178v148.276163h-148.448178z" fill="#bfbfbf" p-id="3174"></path><path d="M695.453049 708.698135h74.48211v74.48211h-74.48211zM397.352595 708.698135h74.654124v74.48211H397.352595v74.48211H173.734252v-223.618344h74.654124v-74.482109h74.482109v74.482109H397.352595z" fill="#8a8a8a" p-id="3175"></path><path d="M211.405342 671.715102h148.448177v148.276163h-148.448177z" fill="#bfbfbf" p-id="3176"></path><path d="M248.388376 708.698135h74.482109v74.48211h-74.482109zM397.352595 559.561902h74.48211v74.482109H397.352595z" fill="#fa733a" p-id="3177"></path></svg>